HIERARCHY
ROOT Hips
{
 OFFSET 0.000000 0.000000 0.000000
 CHANNELS 6 Xposition Yposition Zposition Yrotation Xrotation Zrotation
 JOINT Chest
 {
  OFFSET 0.000000 9.585900 0.002600
  CHANNELS 3 Yrotation Xrotation Zrotation
  JOINT Chest2
  {
   OFFSET 0.000000 9.601200 -0.005300
   CHANNELS 3 Yrotation Xrotation Zrotation
   JOINT Chest3
   {
    OFFSET 0.000000 9.561800 0.000000
    CHANNELS 3 Yrotation Xrotation Zrotation
    JOINT Chest4
    {
     OFFSET 0.000000 9.552100 0.000000
     CHANNELS 3 Yrotation Xrotation Zrotation
     JOINT Neck
     {
      OFFSET 0.000000 14.453000 0.000000
      CHANNELS 3 Yrotation Xrotation Zrotation
      JOINT Head
      {
       OFFSET 0.000000 8.936500 -0.011300
       CHANNELS 3 Yrotation Xrotation Zrotation
       End Site
       {
        OFFSET 0.000000 17.073600 -0.006000
       }
      }
     }
     JOINT RightCollar
     {
      OFFSET -2.921100 9.558500 0.000000
      CHANNELS 3 Yrotation Xrotation Zrotation
      JOINT RightShoulder
      {
       OFFSET -13.519700 0.000000 0.000000
       CHANNELS 3 Yrotation Xrotation Zrotation
       JOINT RightElbow
       {
        OFFSET 0.000000 -29.696600 0.000000
        CHANNELS 3 Yrotation Xrotation Zrotation
        JOINT RightWrist
        {
         OFFSET 0.000000 -24.004700 0.000000
         CHANNELS 3 Yrotation Xrotation Zrotation
         End Site
         {
          OFFSET 0.000000 -17.728500 0.000000
         }
        }
       }
      }
     }
     JOINT LeftCollar
     {
      OFFSET 2.921100 9.558500 0.000000
      CHANNELS 3 Yrotation Xrotation Zrotation
      JOINT LeftShoulder
      {
       OFFSET 13.519700 0.000000 0.000000
       CHANNELS 3 Yrotation Xrotation Zrotation
       JOINT LeftElbow
       {
        OFFSET 0.000000 -29.696600 0.000000
        CHANNELS 3 Yrotation Xrotation Zrotation
        JOINT LeftWrist
        {
         OFFSET 0.000000 -24.004700 0.000000
         CHANNELS 3 Yrotation Xrotation Zrotation
         End Site
         {
          OFFSET 0.000000 -17.728500 0.000000
         }
        }
       }
      }
     }
    }
   }
  }
 }
 JOINT RightHip
 {
  OFFSET -7.771700 -0.012900 -0.001300
  CHANNELS 3 Yrotation Xrotation Zrotation
  JOINT RightKnee
  {
   OFFSET 0.000000 -40.869800 0.001200
   CHANNELS 3 Yrotation Xrotation Zrotation
   JOINT RightAnkle
   {
    OFFSET 0.000000 -39.717900 0.002100
    CHANNELS 3 Yrotation Xrotation Zrotation
    JOINT RightToe
    {
     OFFSET 0.000000 -4.965400 11.033500
     CHANNELS 3 Yrotation Xrotation Zrotation
     End Site
     {
      OFFSET 0.000000 -1.423100 5.872300
     }
    }
   }
  }
 }
 JOINT LeftHip
 {
  OFFSET 7.771700 -0.012900 -0.001300
  CHANNELS 3 Yrotation Xrotation Zrotation
  JOINT LeftKnee
  {
   OFFSET 0.000000 -40.869800 0.001200
   CHANNELS 3 Yrotation Xrotation Zrotation
   JOINT LeftAnkle
   {
    OFFSET 0.000000 -39.717900 0.002100
    CHANNELS 3 Yrotation Xrotation Zrotation
    JOINT LeftToe
    {
     OFFSET 0.000000 -4.965400 11.033500
     CHANNELS 3 Yrotation Xrotation Zrotation
     End Site
     {
      OFFSET 0.000000 -1.423100 5.872300
     }
    }
   }
  }
 }
}
MOTION
Frames: 5
Frame Time: 0.008333
0.000000 85.388000 0.000000 0.000000 -5.767877 0.000000 0.000000 11.653817 0.000000 0.000000 -5.885947 0.000000 0.000000 -0.000000 0.000000 0.000000 -0.000000 0.000000 0.000000 12.528835 0.000000 0.000000 0.711642 0.000000 0.000000 -0.000000 0.000000 0.000000 0.000000 -90.000000 0.000000 -2.309062 0.000000 0.000000 2.309062 0.000000 0.000000 -0.000000 0.000000 0.000000 -0.000000 90.000000 0.000000 -2.309062 0.000000 0.000000 2.309062 0.000000 0.000000 8.520406 0.000000 0.000000 1.905762 0.000000 -0.000000 -4.658285 0.000000 0.000000 -0.000000 0.000000 0.000000 8.520406 0.000000 0.000000 1.905762 0.000000 -0.000000 -4.658285 0.000000 0.000000 -0.000000 0.000000
-96.432234 44.076308 16.197049 175.362281 -35.017471 0.917672 0.128341 26.655128 3.625333 -0.120920 4.564441 0.653275 -0.168247 7.227948 1.036997 -0.068540 21.814905 3.217204 1.494209 4.750418 -9.937934 4.439360 -20.902984 -12.171111 12.677376 -0.604992 -4.382170 -22.577874 -10.665405 -5.886763 -139.050083 -64.002246 146.136558 -11.531026 4.241774 -28.069460 -19.253555 -3.222082 -7.615787 23.972021 -17.075689 -0.163576 109.220339 -54.630389 -119.017926 26.122529 -4.847562 9.519204 0.711989 -57.042108 8.227288 -149.541837 69.952893 -148.846068 -12.573571 -23.859835 8.215609 0.363266 -0.655468 0.178727 5.062479 -40.305024 -2.096048 176.084988 58.358503 175.561108 -2.277255 -42.345709 2.751576 -0.000965 0.214788 -0.005223
-96.432914 44.076202 16.198389 175.369958 -35.006420 0.905363 0.119849 26.627155 3.611398 -0.118257 4.568091 0.661770 -0.175474 7.198392 1.025120 -0.062477 21.828818 3.221279 1.504587 4.757238 -9.947567 4.471639 -20.903626 -12.228518 12.688173 -0.645189 -4.411612 -22.594593 -10.618107 -5.859380 -138.899820 -63.850805 146.090804 -11.554146 4.126774 -27.650840 -19.255509 -3.283517 -7.616856 23.984829 -17.016217 -0.141236 109.129137 -54.538590 -118.979582 26.146419 -4.839287 9.547505 0.689054 -57.059009 8.279199 -149.423900 69.932636 -148.755257 -12.562863 -23.818381 8.229525 0.367068 -0.676434 0.185025 5.053173 -40.316275 -2.093045 176.082305 58.361758 175.560040 -2.273169 -42.350647 2.749139 -0.001171 0.220236 -0.003851
-96.435562 44.076535 16.199114 175.377704 -34.998354 0.903165 0.096590 26.582448 3.572534 -0.116096 4.562836 0.664050 -0.174077 7.195685 1.030599 -0.070847 21.815383 3.208506 1.521621 4.761713 -9.978142 4.491790 -20.866820 -12.227591 12.711043 -0.624272 -4.401637 -22.610819 -10.609444 -5.841129 -138.760241 -63.713063 146.047379 -11.588675 4.052994 -27.261999 -19.242955 -3.292024 -7.612506 23.989215 -16.988793 -0.159847 109.018283 -54.484509 -118.903768 26.170382 -4.829529 9.593718 0.690841 -57.073348 8.292193 -149.330448 69.916130 -148.678931 -12.547719 -23.772615 8.238872 0.359651 -0.702790 0.187875 5.052673 -40.323784 -2.104252 176.077876 58.365530 175.557132 -2.275673 -42.348122 2.749692 0.003629 0.218657 -0.000997
-96.436116 44.076325 16.200801 175.384828 -34.984017 0.886928 0.086683 26.549223 3.568469 -0.119710 4.544566 0.656969 -0.174558 7.187617 1.030420 -0.079613 21.795508 3.195376 1.537746 4.774876 -10.006776 4.498021 -20.823028 -12.189581 12.735063 -0.596560 -4.393731 -22.641792 -10.628984 -5.814382 -138.574987 -63.611052 145.970206 -11.623218 4.011259 -26.912666 -19.227582 -3.276138 -7.609550 23.990179 -16.970826 -0.191315 108.902054 -54.434920 -118.815848 26.194268 -4.820009 9.660350 0.671161 -57.094745 8.327791 -149.279308 69.906157 -148.647160 -12.490579 -23.755294 8.240527 0.301494 -0.697253 0.175739 5.041913 -40.338125 -2.096298 176.069508 58.370662 175.550460 -2.270720 -42.342363 2.745908 0.001674 0.214869 0.000049
